<svg version="1.1" id="Layer_1" xmlns="http://www.w3.org/2000/svg" xmlns:xlink="http://www.w3.org/1999/xlink" x="0px" y="0px"
	 width="100%" viewBox="0 0 1024 1024" enable-background="new 0 0 1024 1024" xml:space="preserve">
<path fill="currentColor" opacity="1" stroke="currentColor" 
	d="
M358.005463,890.320618 
	C330.414307,891.018982 305.764496,883.721313 284.492920,866.786377 
	C260.227661,847.468079 245.987732,822.389221 242.511993,791.272095 
	C241.469376,781.937927 241.856277,772.654724 241.702652,763.348450 
	C241.650864,760.210693 240.880188,758.885742 237.442230,758.086914 
	C203.431091,750.184509 182.354980,728.939453 175.145767,694.911560 
	C170.498215,672.974976 176.685303,653.042175 190.554703,635.640137 
	C202.666824,620.442993 218.758972,611.558838 237.693832,607.897339 
	C240.991867,607.259644 241.670288,605.986023 241.694427,603.036804 
	C241.799164,590.251892 240.994659,577.447754 243.387817,564.728760 
	C247.985840,540.291321 260.386658,520.508484 279.064514,504.538330 
	C299.753906,486.848236 323.825195,478.468201 351.096497,478.591187 
	C397.424347,478.800110 443.753784,478.649902 490.082581,478.645294 
	C496.629639,478.644653 496.638306,478.630707 496.652435,471.945526 
	C496.664398,466.279449 496.410004,460.599548 496.729584,454.951569 
	C496.983063,450.471436 495.228607,449.274963 490.943207,449.288025 
	C450.114288,449.412537 409.284821,449.361816 368.455505,449.356903 
	C360.663544,449.355957 360.659607,449.346863 360.657562,441.446747 
	C360.655762,434.447449 360.628082,427.447876 360.675934,420.448883 
	C360.757782,408.476624 368.412262,400.681671 380.330750,400.677002 
	C468.655426,400.642517 556.980103,400.642334 645.304749,400.670135 
	C658.195740,400.674194 665.302551,407.947021 665.344482,420.928802 
	C665.367554,428.094696 665.358582,435.260773 665.343628,442.426697 
	C665.329224,449.333130 665.317688,449.345184 658.607666,449.346710 
	C618.111633,449.355927 577.615662,449.356720 537.119629,449.366760 
	C530.355225,449.368439 530.354004,449.383118 530.348083,456.270874 
	C530.343384,461.770325 530.607544,467.286743 530.257385,472.763977 
	C529.965454,477.330597 531.443176,478.763855 536.128235,478.747070 
	C581.789795,478.583405 627.452271,478.692780 673.114319,478.613617 
	C682.963745,478.596527 692.632263,479.530121 702.294861,481.550049 
	C741.402649,489.725372 775.579285,525.067810 782.437317,564.381348 
	C784.628296,576.940735 784.334106,589.545044 784.282898,602.165588 
	C784.268921,605.604980 784.795715,607.232239 788.942505,607.943848 
	C821.707825,613.567749 848.160095,640.224915 852.019958,672.947693 
	C856.934509,714.612549 829.138123,750.306702 788.944580,758.118408 
	C784.822876,758.919434 784.227783,760.591370 784.293091,764.005554 
	C784.582703,779.147400 784.810547,794.349976 780.289612,809.011047 
	C766.878479,852.502625 737.752747,878.936035 693.239990,888.343384 
	C685.259583,890.029907 677.138489,890.367859 668.971130,890.363220 
	C565.482178,890.304626 461.993225,890.322144 358.005463,890.320618 
M292.662811,827.869934 
	C308.129425,846.609253 328.358002,856.409668 352.303528,856.495422 
	C457.124573,856.870789 561.947693,856.663452 666.770081,856.642944 
	C671.744019,856.641968 676.677002,856.432251 681.668640,855.815063 
	C721.413391,850.901123 749.645691,819.286316 749.649963,779.287659 
	C749.656921,713.961182 749.716919,648.634583 749.627808,583.308228 
	C749.574219,544.029663 718.947571,512.776672 678.694336,512.562195 
	C570.042053,511.983246 461.384705,512.402588 352.729462,512.316711 
	C337.360138,512.304565 322.977753,515.698853 310.009064,523.890747 
	C289.240997,537.009277 276.505798,555.642700 276.332550,580.569824 
	C275.868073,647.392700 276.191772,714.221069 276.218964,781.047302 
	C276.225983,798.299927 281.622864,813.702942 292.662811,827.869934 
M820.619080,686.076355 
	C822.240845,663.190613 806.521667,647.158142 790.625549,642.152161 
	C785.249573,640.459167 784.333008,641.034363 784.329895,646.434326 
	C784.315491,671.243958 784.320251,696.053650 784.358276,720.863220 
	C784.360657,722.429626 783.756531,724.276855 785.826294,725.442688 
	C786.328491,725.351624 786.994385,725.308655 787.608887,725.108215 
	C806.265686,719.023132 817.345276,706.384949 820.619080,686.076355 
M241.648956,683.500061 
	C241.648956,669.442322 241.648956,655.384521 241.648956,641.300049 
	C221.153290,642.364197 205.764465,662.126709 206.269058,685.729919 
	C206.660751,704.053284 225.023193,724.677551 241.648544,724.844116 
	C241.648544,711.396912 241.648544,697.948547 241.648956,683.500061 
z"/>
<path fill="currentColor" opacity="1.000000" stroke="currentColor" 
	d="
M604.993835,380.383636 
	C556.508850,380.383331 508.522308,380.385620 460.535767,380.377716 
	C453.675354,380.376587 453.660400,380.353760 453.655548,373.556915 
	C453.644928,358.727753 453.673187,343.898499 453.640808,329.069427 
	C453.625397,322.011261 449.810730,317.278931 444.240417,317.251831 
	C438.287262,317.222870 434.393799,321.844666 434.366669,329.236298 
	C434.310425,344.565094 434.254761,359.895233 434.410034,375.222626 
	C434.448730,379.043243 433.352722,380.651062 429.310608,380.453430 
	C423.492645,380.168976 417.649506,380.297943 411.819702,380.400513 
	C408.908722,380.451721 407.619537,379.415161 407.628662,376.348267 
	C407.725830,343.691772 406.001373,310.918274 408.182953,278.405457 
	C411.528442,228.545593 447.412384,189.875397 495.222595,179.750381 
	C548.241699,168.522263 600.997131,202.510986 615.259766,256.569702 
	C617.975037,266.861115 619.505615,277.308472 619.422913,288.052734 
	C619.203674,316.543060 619.351746,345.036133 619.343079,373.528137 
	C619.341003,380.362701 619.322205,380.364258 612.490234,380.381134 
	C610.157593,380.386902 607.824951,380.382660 604.993835,380.383636 
M438.072632,263.487274 
	C436.670258,267.936584 435.668732,272.461090 435.172668,277.113556 
	C434.541809,283.030579 438.111237,288.052734 443.511322,288.605896 
	C448.505493,289.117462 452.810699,285.186859 453.646606,279.666626 
	C457.634216,253.332840 472.312164,235.827957 497.420074,227.078293 
	C500.386261,226.044632 503.585052,225.676498 506.547394,224.634232 
	C510.545685,223.227432 512.844666,220.331055 512.624146,215.908386 
	C512.412354,211.659836 510.203979,208.858093 506.264557,207.205536 
	C502.673035,205.698929 499.315033,207.024796 496.062866,207.984070 
	C467.531799,216.399780 448.312897,234.728378 438.072632,263.487274 
z"/>
<path fill="currentColor" opacity="1.000000" stroke="currentColor" 
	d="
M731.188904,277.244385 
	C730.708740,285.342682 726.394836,289.937775 718.450317,290.046448 
	C700.640198,290.290131 682.819946,290.353638 665.012512,290.024963 
	C654.317932,289.827606 648.563293,281.508850 652.659302,273.088776 
	C654.752075,268.786621 658.212158,266.645508 663.025696,266.649261 
	C681.671814,266.663849 700.317993,266.616455 718.963928,266.675171 
	C725.641785,266.696198 728.981018,269.593018 731.188904,277.244385 
z"/>
<path fill="currentColor" opacity="1.000000" stroke="currentColor" 
	d="
M298.868774,269.871948 
	C301.810974,267.298553 304.896362,266.589966 308.381622,266.607605 
	C325.842560,266.696045 343.304230,266.626923 360.765564,266.660400 
	C368.621307,266.675446 373.538757,270.931366 373.944855,277.922668 
	C374.307434,284.164368 368.700562,289.933014 361.293304,290.025330 
	C343.668854,290.244934 326.038544,290.187286 308.412994,290.006744 
	C303.392670,289.955322 298.737183,288.159729 296.576569,283.152557 
	C294.606049,278.585999 295.162964,274.057648 298.868774,269.871948 
z"/>
<path fill="currentColor" opacity="1.000000" stroke="currentColor"
	d="
M509.176270,76.821335 
	C517.926941,74.718452 524.249878,79.358459 524.302917,87.910545 
	C524.422607,107.212814 524.378235,126.516541 524.305542,145.819321 
	C524.281555,152.195068 519.609070,157.019318 513.542114,157.286652 
	C507.209686,157.565704 501.818390,152.944260 501.752167,146.331284 
	C501.553864,126.531212 501.579987,106.726921 501.761353,86.926498 
	C501.803741,82.300369 504.314117,78.755463 509.176270,76.821335 
z"/>
<path fill="currentColor" opacity="1.000000" stroke="currentColor"
	d="
M624.480103,154.480225 
	C632.350586,146.557907 639.962585,138.877670 647.597473,131.220306 
	C649.979919,128.830841 652.567810,126.877167 656.175049,126.644905 
	C661.030151,126.332275 665.506104,127.385208 667.544373,132.040741 
	C669.524719,136.564056 669.859619,141.790558 666.160095,145.677078 
	C653.665344,158.803360 641.011963,171.785110 628.156738,184.557999 
	C623.984253,188.703766 616.660400,188.386536 612.570190,184.748993 
	C608.180237,180.844910 607.259521,174.661392 610.712585,169.354965 
	C614.365601,163.741257 619.870911,159.746155 624.480103,154.480225 
z"/>
<path fill="currentColor" opacity="1.000000" stroke="currentColor" 
	d="
M402.772827,186.954391 
	C400.353027,185.977371 398.639984,184.704834 397.089752,183.149521 
	C385.106842,171.126892 373.082764,159.145233 361.118439,147.104202 
	C357.367798,143.329498 355.225433,138.967117 357.589966,133.610977 
	C361.210632,125.409340 370.904846,123.883286 377.903778,130.649979 
	C386.036224,138.512634 393.866516,146.687881 401.827057,154.728363 
	C405.573730,158.512634 409.326202,162.291229 413.061890,166.086365 
	C418.134552,171.239746 419.308594,175.756226 416.922028,180.834641 
	C414.510712,185.965698 410.709229,187.696854 402.772827,186.954391 
z"/>
<path fill="currentColor" opacity="1.000000" stroke="currentColor"
	d="
M428.877930,629.073181 
	C455.714966,651.866821 456.325806,693.679138 431.940613,716.740967 
	C413.960022,733.745728 392.632080,738.283325 369.612274,729.834290 
	C346.791412,721.458252 334.212646,704.041260 331.685028,679.843933 
	C328.291412,647.356750 351.889740,619.406006 383.550934,615.515137 
	C400.580536,613.422302 415.298035,618.613647 428.877930,629.073181 
M400.684326,697.339600 
	C419.001068,688.231384 420.803558,665.293518 404.144440,653.307983 
	C396.636353,647.906128 384.796448,647.968018 376.873688,653.450562 
	C367.993683,659.595398 363.557953,670.590454 366.198578,679.911072 
	C370.640503,695.589722 384.123749,702.655701 400.684326,697.339600 
z"/>
<path fill="currentColor" opacity="1.000000" stroke="currentColor"
	d="
M688.648560,700.364258 
	C680.425842,716.016846 668.490295,726.891235 651.638916,731.412170 
	C621.993408,739.365479 593.737305,726.142944 581.733643,698.896301 
	C566.321777,663.913269 585.323181,625.753052 622.372253,616.393250 
	C653.087646,608.633606 685.767517,629.596497 693.209656,662.107300 
	C696.195862,675.152649 694.198669,687.838867 688.648560,700.364258 
M657.680969,662.881042 
	C649.926208,649.850464 635.662109,645.391418 623.529175,652.385498 
	C610.222778,660.056030 608.336914,674.902893 613.765564,686.274780 
	C619.201416,697.661682 634.101990,702.602905 645.381165,697.401794 
	C658.609009,691.302063 663.896240,677.116821 657.680969,662.881042 
z"/>
<path fill="currentColor" opacity="1.000000" stroke="currentColor"
	d="
M559.381470,814.623779 
	C514.912537,825.625427 472.334351,822.151367 431.618042,801.295898 
	C423.908264,797.346924 416.681549,792.581970 409.687317,787.470093 
	C402.420013,782.158691 400.837433,774.387878 405.639069,767.465698 
	C410.210663,760.875122 418.748016,759.653992 425.921722,764.786316 
	C444.063782,777.765991 464.112823,786.549377 486.000397,790.345703 
	C520.183044,796.274841 552.811890,790.890259 583.460327,774.475952 
	C589.315063,771.340332 594.820312,767.554138 600.501770,764.092590 
	C607.655212,759.734314 615.436279,761.152832 619.867004,767.595703 
	C624.424988,774.223450 622.816101,782.024780 615.948853,787.239868 
	C599.038452,800.082031 580.256042,809.038330 559.381470,814.623779 
z"/>
</svg>